<svg xmlns="http://www.w3.org/2000/svg" xmlns:xlink="http://www.w3.org/1999/xlink" width="216" height="153" version="1.1" viewBox="0 0 216 153"><title>thumb - stroked - usds home wire blue copy</title><desc>Created with Sketch.</desc><defs><rect id="path-1" width="208" height="145" x="0" y="0" rx="10"/></defs><g id="Page-1" fill="none" fill-rule="evenodd" stroke="none" stroke-width="1"><g id="icons-and-illustration" transform="translate(-930.000000, -1378.000000)"><g id="thumb-/-stroked---usds-home-wire-blue" transform="translate(930.000000, 1378.000000)"><g id="Group-3"><g id="Group-2" transform="translate(4.000000, 4.000000)"><mask id="mask-2" fill="#fff"><use xlink:href="#path-1"/></mask><rect id="Rectangle-3-Copy" width="208" height="77" x="0" y="28" fill="#3398DC" mask="url(#mask-2)"/><rect id="Rectangle-3-Copy-3" width="208" height="28" x="0" y="0" fill="#90C9F0" mask="url(#mask-2)"/><rect id="Rectangle-3-Copy-14" width="34" height="6" x="27" y="10" fill="#FFF" mask="url(#mask-2)"/><rect id="Rectangle-3-Copy-15" width="20" height="3" x="172" y="12" fill="#FFF" mask="url(#mask-2)"/><rect id="Rectangle-3-Copy-16" width="20" height="3" x="148" y="12" fill="#FFF" mask="url(#mask-2)"/><rect id="Rectangle-3-Copy-17" width="20" height="3" x="124" y="12" fill="#FFF" mask="url(#mask-2)"/><rect id="Rectangle-3-Copy-23" width="208" height="40" x="0" y="105" fill="#90C9F0" mask="url(#mask-2)"/><rect id="Rectangle-3-Copy-18" width="36" height="3" x="34" y="115" fill="#FFF" mask="url(#mask-2)"/><rect id="Rectangle-3-Copy-18" width="101" height="2" x="91" y="115" fill="#FFF" mask="url(#mask-2)"/><rect id="Rectangle-3-Copy-19" width="101" height="2" x="91" y="120" fill="#FFF" mask="url(#mask-2)"/><rect id="Rectangle-3-Copy-20" width="101" height="2" x="91" y="125" fill="#FFF" mask="url(#mask-2)"/><rect id="Rectangle-3-Copy-22" width="76" height="2" x="91" y="130" fill="#FFF" mask="url(#mask-2)"/><rect id="Rectangle-3-Copy-18" width="30" height="3" x="34" y="121" fill="#FFF" mask="url(#mask-2)"/><rect id="Rectangle-3-Copy-2" width="47" height="77" x="28" y="28" fill="#287DB5" mask="url(#mask-2)"/><rect id="Rectangle-3-Copy-24" width="34" height="4" x="34" y="39" fill="#FFF" mask="url(#mask-2)"/><rect id="Rectangle-3-Copy-25" width="29" height="4" x="34" y="48" fill="#FFF" mask="url(#mask-2)"/><rect id="Rectangle-3-Copy-30" width="26" height="2" x="34" y="59" fill="#C7D5E3" mask="url(#mask-2)"/><rect id="Rectangle-3-Copy-29" width="26" height="2" x="34" y="63" fill="#C7D5E3" mask="url(#mask-2)"/><rect id="Rectangle-3-Copy-28" width="26" height="2" x="34" y="67" fill="#C7D5E3" mask="url(#mask-2)"/><rect id="Rectangle-3-Copy-27" width="26" height="2" x="34" y="71" fill="#C7D5E3" mask="url(#mask-2)"/><rect id="Rectangle-3-Copy-26" width="19" height="2" x="34" y="75" fill="#C7D5E3" mask="url(#mask-2)"/><circle id="Oval" cx="152" cy="50" r="8" fill="#90C9F0" mask="url(#mask-2)"/><polyline id="Path-2" stroke="#90C9F0" stroke-width="4" points="90 88 123.53 54 144 74.758" mask="url(#mask-2)"/><polyline id="Path-3" stroke="#90C9F0" stroke-width="4" points="141 88.378 164.698 64 189 89" mask="url(#mask-2)"/></g><path id="Rectangle" fill="#2C3E50" fill-rule="nonzero" d="M14,8 C10.6862915,8 8,10.6862915 8,14 L8,139 C8,142.313708 10.6862915,145 14,145 L202,145 C205.313708,145 208,142.313708 208,139 L208,14 C208,10.6862915 205.313708,8 202,8 L14,8 Z M14,1.77635684e-15 L202,0 C209.731986,1.9095836e-14 216,6.2680135 216,14 L216,139 C216,146.731986 209.731986,153 202,153 L14,153 C6.2680135,153 8.8817842e-16,146.731986 0,139 L0,14 C-8.8817842e-16,6.2680135 6.2680135,1.02140518e-14 14,1.77635684e-15 Z"/><polygon id="Path-9" fill="#2C3E50" fill-rule="nonzero" points="5.643 33.115 5.643 27.115 212.953 27.115 212.953 33.115"/><polygon id="Path-9-Copy" fill="#2C3E50" fill-rule="nonzero" points="5.643 112.115 5.643 106.115 212.953 106.115 212.953 112.115"/><polygon id="Path-10" fill="#2C3E50" fill-rule="nonzero" points="27 31.244 33 31.244 33 108.244 27 108.244"/><polygon id="Path-10-Copy" fill="#2C3E50" fill-rule="nonzero" points="77 31.244 83 31.244 83 108.244 77 108.244"/><circle id="Oval-6" cx="22" cy="17" r="6" fill="#FFF"/></g></g></g></g></svg>